<?xml version="1.0" encoding="UTF-8" standalone="no"?><!DOCTYPE svg PUBLIC "-//W3C//DTD SVG 1.1//EN" "http://www.w3.org/Graphics/SVG/1.1/DTD/svg11.dtd"><svg width="100%" height="100%" viewBox="0 0 1000 400" version="1.1" xmlns="http://www.w3.org/2000/svg" xmlns:xlink="http://www.w3.org/1999/xlink" xml:space="preserve" xmlns:serif="http://www.serif.com/" style="fill-rule:evenodd;clip-rule:evenodd;stroke-linejoin:round;stroke-miterlimit:1.41421;"><g><path d="M145.756,321.868l-28.6,0l0,-71.888c0,-1.973 -0.368,-3.841 -1.104,-5.603c-0.736,-1.762 -1.77,-3.312 -3.102,-4.651c-1.331,-1.339 -2.874,-2.379 -4.626,-3.119c-1.752,-0.74 -3.61,-1.11 -5.573,-1.11c-1.962,0 -3.802,0.37 -5.52,1.11c-1.717,0.74 -3.224,1.78 -4.521,3.119c-1.297,1.339 -2.313,2.889 -3.049,4.651c-0.736,1.762 -1.104,3.63 -1.104,5.603l0,71.888l-28.705,0l0,-71.888c0,-1.973 -0.368,-3.841 -1.104,-5.603c-0.736,-1.762 -1.77,-3.312 -3.102,-4.651c-1.332,-1.339 -2.874,-2.379 -4.626,-3.119c-1.753,-0.74 -3.61,-1.11 -5.573,-1.11c-1.963,0 -3.803,0.37 -5.52,1.11c-1.718,0.74 -3.225,1.78 -4.521,3.119c-1.297,1.339 -2.314,2.889 -3.05,4.651c-0.736,1.762 -1.104,3.63 -1.104,5.603l0,71.888l-28.704,0l0.426,-71.578c-0.613,-16.254 10.34,-29.629 14.294,-32.976c3.996,-3.383 8.394,-6.009 13.196,-7.876c4.801,-1.868 9.796,-2.802 14.983,-2.802c5.257,0 10.392,0.987 15.404,2.96c5.012,1.974 9.41,5.392 13.196,10.255c1.752,-2.396 3.75,-4.44 5.993,-6.132c2.243,-1.691 4.609,-3.066 7.097,-4.123c2.489,-1.057 5.065,-1.814 7.728,-2.273c2.664,-0.458 5.293,-0.687 7.886,-0.687c5.959,0 11.549,1.128 16.771,3.383c5.222,2.255 9.779,5.339 13.669,9.25c3.89,3.912 6.957,8.511 9.2,13.797c2.243,5.285 3.365,10.924 3.365,16.914l0,71.888Z" style="fill:#fff;fill-rule:nonzero;"/><path d="M286.483,321.868l-17.743,0.335l-0.342,-15.875c-2.734,2.467 -5.626,4.775 -8.675,6.924c-3.049,2.15 -6.256,4.018 -9.621,5.603c-3.364,1.586 -6.817,2.837 -10.357,3.753c-3.54,0.917 -7.132,1.375 -10.777,1.375c-7.921,0 -15.369,-1.339 -22.343,-4.018c-6.975,-2.678 -13.074,-6.572 -18.296,-11.681c-5.222,-5.11 -9.34,-11.365 -12.354,-18.765c-3.015,-7.4 -4.522,-15.823 -4.522,-25.267c0,-8.81 1.507,-16.897 4.522,-24.262c3.014,-7.365 7.132,-13.69 12.354,-18.976c5.222,-5.286 11.321,-9.391 18.296,-12.316c6.974,-2.925 14.422,-4.388 22.343,-4.388c3.645,0 7.255,0.459 10.83,1.375c3.575,0.916 7.045,2.185 10.409,3.806c3.365,1.621 6.55,3.555 9.621,5.708c35.268,24.728 24.182,74.672 26.655,106.669Zm-28.915,-57.616c0,-3.947 -0.754,-7.77 -2.261,-11.47c-1.507,-3.7 -3.557,-6.977 -6.151,-9.832c-2.594,-2.854 -5.625,-5.145 -9.095,-6.871c-3.47,-1.727 -7.168,-2.591 -11.093,-2.591c-3.925,0 -7.623,0.67 -11.093,2.009c-3.47,1.339 -6.484,3.313 -9.042,5.92c-2.559,2.608 -4.574,5.832 -6.046,9.673c-1.472,3.842 -2.208,8.229 -2.208,13.162c0,4.934 0.736,9.321 2.208,13.162c1.472,3.841 3.487,7.066 6.046,9.673c2.558,2.608 5.572,4.581 9.042,5.92c3.47,1.34 7.168,2.009 11.093,2.009c3.925,0 7.623,-0.863 11.093,-2.59c3.47,-1.727 6.501,-4.017 9.095,-6.872c2.594,-2.854 4.644,-6.131 6.151,-9.831c1.507,-3.7 2.261,-7.524 2.261,-11.471Z" style="fill:#fff;fill-rule:nonzero;"/><path d="M348.035,321.868l-28.915,0l0,-158.259l28.915,0l0,99.798l42.794,-54.551l33.016,0l-37.327,47.15l37.327,65.862l-33.016,0l-22.817,-41.124l-19.977,26.641l0,14.483Z" style="fill:#fff;fill-rule:nonzero;"/><path d="M604.884,365.001l0,-29.072l15.982,0.211c2.804,0 5.503,-0.458 8.097,-1.374c2.593,-0.916 4.994,-2.185 7.202,-3.806c2.208,-1.621 4.153,-3.542 5.836,-5.762c1.682,-2.22 3.049,-4.634 4.1,-7.241c-3.154,1.339 -6.361,2.678 -9.621,4.017c-3.259,1.339 -6.536,2.009 -9.831,2.009c-6.939,0 -13.458,-1.234 -19.557,-3.7c-6.098,-2.467 -11.443,-5.974 -16.034,-10.519c-4.592,-4.546 -8.202,-10.079 -10.83,-16.598c-2.629,-6.519 -3.943,-13.831 -3.943,-21.936l0,-62.585l28.599,0l0,62.585c0,4.017 0.579,7.523 1.735,10.519c1.157,2.995 2.716,5.497 4.679,7.505c1.963,2.009 4.259,3.507 6.887,4.493c2.629,0.987 5.45,1.48 8.464,1.48c2.944,0 5.731,-0.687 8.359,-2.061c2.629,-1.374 4.925,-3.189 6.887,-5.444c1.963,-2.256 3.505,-4.811 4.627,-7.665c1.121,-2.854 1.682,-5.797 1.682,-8.827l0,-62.585l28.915,0l0,98.951c-0.07,7.964 -1.612,15.435 -4.626,22.413c-3.014,6.977 -7.133,13.073 -12.355,18.289c-5.222,5.215 -11.303,9.338 -18.243,12.369c-6.939,3.03 -14.369,4.545 -22.29,4.545l-14.721,-0.211Z" style="fill:#fff;fill-rule:nonzero;"/><path d="M867.003,321.868l-28.705,0c-0.599,-23.297 -0.177,-45.044 0.463,-64.859c0.35,-10.831 4.771,-23.137 11.06,-31.829c1.503,-2.076 3.135,-3.946 4.88,-5.541c4.626,-4.228 9.866,-7.488 15.719,-9.778c5.853,-2.291 11.969,-3.436 18.348,-3.436c6.869,0 13.353,1.321 19.452,3.964c6.098,2.643 11.426,6.273 15.982,10.889c4.556,4.616 8.149,10.008 10.777,16.175c2.629,6.167 3.943,12.739 3.943,19.716l0,64.699l-28.704,0l0,-64.699c0,-2.96 -0.561,-5.761 -1.683,-8.404c-1.121,-2.643 -2.663,-4.951 -4.626,-6.925c-1.963,-1.973 -4.241,-3.524 -6.835,-4.651c-2.593,-1.128 -5.362,-1.692 -8.306,-1.692c-3.014,0 -5.853,0.564 -8.517,1.692c-2.663,1.127 -4.977,2.678 -6.939,4.651c-1.963,1.974 -3.505,4.282 -4.627,6.925c-1.121,2.643 -1.682,5.444 -1.682,8.404l0,64.699Z" style="fill:#fff;fill-rule:nonzero;"/><path d="M779.737,208.833l28.705,0c0.599,23.297 0.177,45.043 -0.463,64.859c-0.35,10.831 -4.771,23.136 -11.06,31.828c-1.502,2.077 -3.135,3.947 -4.88,5.541c-4.626,4.229 -9.866,7.489 -15.719,9.779c-5.853,2.291 -11.969,3.436 -18.348,3.436c-6.869,0 -13.353,-1.321 -19.452,-3.964c-6.098,-2.643 -11.426,-6.273 -15.982,-10.889c-4.556,-4.617 -8.149,-10.008 -10.777,-16.175c-2.629,-6.167 -3.943,-12.739 -3.943,-19.716l0,-64.699l28.704,0l0,64.699c0,2.96 0.561,5.761 1.683,8.404c1.121,2.643 2.663,4.951 4.626,6.925c1.963,1.973 4.241,3.524 6.835,4.651c2.593,1.128 5.362,1.692 8.306,1.692c3.014,0 5.853,-0.564 8.517,-1.692c2.664,-1.127 4.977,-2.678 6.94,-4.651c1.962,-1.974 3.504,-4.282 4.626,-6.925c1.121,-2.643 1.682,-5.444 1.682,-8.404l0,-64.699Z" style="fill:#fff;fill-rule:nonzero;"/><path d="M516.678,208.833l28.705,0c0.599,23.297 0.177,45.043 -0.463,64.859c-0.35,10.831 -4.771,23.136 -11.06,31.828c-1.502,2.077 -3.135,3.947 -4.88,5.541c-4.626,4.229 -9.866,7.489 -15.719,9.779c-5.853,2.291 -11.969,3.436 -18.348,3.436c-6.869,0 -13.353,-1.321 -19.452,-3.964c-6.098,-2.643 -11.426,-6.273 -15.982,-10.889c-4.556,-4.617 -8.149,-10.008 -10.777,-16.175c-2.629,-6.167 -3.943,-12.739 -3.943,-19.716l0,-64.699l28.705,0l0,64.699c0,2.96 0.56,5.761 1.682,8.404c1.121,2.643 2.664,4.951 4.626,6.925c1.963,1.973 4.241,3.524 6.835,4.651c2.593,1.128 5.362,1.692 8.306,1.692c3.014,0 5.853,-0.564 8.517,-1.692c2.664,-1.127 4.977,-2.678 6.94,-4.651c1.962,-1.974 3.504,-4.282 4.626,-6.925c1.122,-2.643 1.682,-5.444 1.682,-8.404l0,-64.699Z" style="fill:#fff;fill-rule:nonzero;"/><rect x="970.088" y="208.645" width="28.915" height="113.223" style="fill:#fff;fill-rule:nonzero;"/></g><path d="M576.973,220.15c-2.777,-7.268 2.775,-26.821 -12.349,-43.468c-14.104,-15.523 -37.229,-49.8 -50.553,-50.882c-14.429,-1.172 -37.695,-3.167 -47.798,-0.381c-10.134,2.793 -19.363,11.926 -34.918,8.881c-15.562,-3.045 -34.644,5.782 -42.743,-1.134c-13.561,-11.582 25.738,-47.786 57.556,-42.294c18.157,3.134 24.058,10.85 32.176,11.783c8.118,0.896 15.026,0.535 22.554,0.156c7.528,-0.373 12.583,-0.824 12.583,-0.824c0,0 -4.784,-7.053 -12.745,-12.342c-7.98,-5.302 -14.533,-14.924 -32.658,-16.2c-18.137,-1.264 -32.245,-6.683 -32.54,-16.106c-0.289,-9.424 -1.892,-16.881 5.979,-26.653c7.865,-9.737 50.95,-33.857 68.329,-28.874c17.373,4.995 37.323,16.342 51.11,16.818c13.756,0.487 32.355,-18.029 32.608,-7.354c0.252,10.663 -6.156,19.956 5.295,15.334c11.434,-4.61 29.878,-12.126 47.299,-8.377c17.421,3.731 28.463,11.037 30.118,17.349c1.649,6.337 -1.727,13.107 -8.022,14.136c-6.306,1.047 -18.143,-1.246 -30.028,-1.673c-11.896,-0.403 -19.003,5.602 -27.572,17.86c-8.587,12.234 -16.326,18.227 -28.115,14.671c-11.776,-3.532 -39.493,-35.853 -51.3,-38.772c-11.8,-2.912 -17.319,-6.872 -17.722,5.019c-0.403,11.909 14.978,37.52 17.181,46.992c2.16,9.484 2.184,8.864 1.39,13.846c-0.813,4.977 10.464,22.94 15.351,26.857c4.886,3.942 -20.96,-64.046 -20.141,-69.654c0.836,-5.614 -0.073,-15.676 14.731,9.285c14.797,24.973 21.603,45.265 24.853,42.25c3.231,-3.015 0.258,-7.522 6.763,-14.196c6.499,-6.661 10.03,-9.887 16.986,-11.518c6.945,-1.643 16.701,-1.714 8.349,4.249c-8.365,5.994 -25.66,16.651 -20.569,32.513c5.085,15.863 18.48,-8.743 21.712,-11.782c3.237,-3.003 -3.532,-6.391 -6.65,-7.125c-3.099,-0.722 1.956,-1.805 12.21,-8.347c10.266,-6.529 30.834,-39.036 60.832,-36.737c30.016,2.305 45.674,2.864 54.761,11.939c9.074,9.111 11.86,19.22 3.887,32.104c-7.967,12.884 -15.604,15.76 -29.288,12.775c-13.678,-2.99 -22.74,-12.709 -35.937,-11.909c-13.185,0.801 -15.44,-2.84 -22.073,3.623c-40.107,39.085 -32.791,133.199 -33.042,133.532" style="fill:#fff;fill-rule:nonzero;"/><g><path d="M369.487,354.066l-7.048,7.083c-0.352,-0.987 -0.834,-1.873 -1.445,-2.66c-0.611,-0.787 -1.298,-1.451 -2.061,-1.991c-0.764,-0.541 -1.592,-0.952 -2.485,-1.234c-0.892,-0.282 -1.809,-0.423 -2.748,-0.423c-1.316,0 -2.555,0.271 -3.718,0.811c-1.163,0.54 -2.173,1.298 -3.031,2.273c-0.857,0.975 -1.533,2.132 -2.026,3.471c-0.493,1.339 -0.74,2.819 -0.74,4.44c0,1.316 0.247,2.549 0.74,3.7c0.493,1.151 1.169,2.161 2.026,3.031c0.858,0.869 1.868,1.55 3.031,2.044c1.163,0.493 2.402,0.74 3.718,0.74c0.939,0 1.844,-0.13 2.713,-0.388c0.869,-0.258 1.686,-0.628 2.449,-1.11c0.764,-0.482 1.445,-1.069 2.044,-1.762c0.599,-0.693 1.087,-1.462 1.462,-2.308l7.048,7.083c-0.892,1.268 -1.92,2.408 -3.083,3.418c-1.163,1.01 -2.42,1.868 -3.771,2.573c-1.351,0.704 -2.772,1.239 -4.264,1.603c-1.491,0.364 -3.024,0.546 -4.598,0.546c-2.655,0 -5.151,-0.499 -7.489,-1.498c-2.337,-0.998 -4.381,-2.366 -6.131,-4.105c-1.751,-1.738 -3.131,-3.771 -4.141,-6.096c-1.01,-2.326 -1.515,-4.816 -1.515,-7.471c0,-2.89 0.505,-5.591 1.515,-8.105c1.01,-2.514 2.39,-4.704 4.141,-6.572c1.75,-1.868 3.794,-3.342 6.131,-4.423c2.338,-1.08 4.834,-1.621 7.489,-1.621c1.574,0 3.118,0.2 4.634,0.599c1.515,0.4 2.96,0.981 4.334,1.745c1.374,0.763 2.643,1.697 3.806,2.801c1.163,1.104 2.167,2.373 3.013,3.806Z" style="fill:#fff;fill-rule:nonzero;"/><path d="M410.082,365.096c0,2.819 -0.505,5.444 -1.515,7.876c-1.01,2.431 -2.385,4.534 -4.123,6.308c-1.738,1.773 -3.776,3.171 -6.114,4.193c-2.337,1.022 -4.845,1.533 -7.524,1.533c-2.654,0 -5.15,-0.511 -7.488,-1.533c-2.337,-1.022 -4.381,-2.42 -6.131,-4.193c-1.751,-1.774 -3.131,-3.877 -4.141,-6.308c-1.01,-2.432 -1.515,-5.057 -1.515,-7.876c0,-2.866 0.505,-5.521 1.515,-7.964c1.01,-2.443 2.39,-4.552 4.141,-6.325c1.75,-1.774 3.794,-3.166 6.131,-4.176c2.338,-1.011 4.834,-1.516 7.488,-1.516c2.679,0 5.187,0.476 7.524,1.428c2.338,0.951 4.376,2.302 6.114,4.052c1.738,1.75 3.113,3.853 4.123,6.308c1.01,2.455 1.515,5.186 1.515,8.193Zm-9.69,0c0,-1.551 -0.253,-2.954 -0.758,-4.211c-0.505,-1.257 -1.192,-2.338 -2.062,-3.242c-0.869,-0.905 -1.885,-1.598 -3.048,-2.079c-1.163,-0.482 -2.402,-0.723 -3.718,-0.723c-1.315,0 -2.554,0.241 -3.717,0.723c-1.163,0.481 -2.173,1.174 -3.031,2.079c-0.857,0.904 -1.533,1.985 -2.026,3.242c-0.493,1.257 -0.74,2.66 -0.74,4.211c0,1.457 0.247,2.807 0.74,4.052c0.493,1.246 1.169,2.326 2.026,3.242c0.858,0.917 1.868,1.639 3.031,2.168c1.163,0.528 2.402,0.793 3.717,0.793c1.316,0 2.555,-0.247 3.718,-0.74c1.163,-0.494 2.179,-1.187 3.048,-2.08c0.87,-0.892 1.557,-1.973 2.062,-3.242c0.505,-1.268 0.758,-2.666 0.758,-4.193Z" style="fill:#fff;fill-rule:nonzero;"/><rect x="415.403" y="331.548" width="9.691" height="52.753" style="fill:#fff;fill-rule:nonzero;"/><path d="M468.896,365.096c0,2.819 -0.505,5.444 -1.515,7.876c-1.01,2.431 -2.384,4.534 -4.123,6.308c-1.738,1.773 -3.776,3.171 -6.114,4.193c-2.337,1.022 -4.845,1.533 -7.523,1.533c-2.655,0 -5.151,-0.511 -7.489,-1.533c-2.337,-1.022 -4.381,-2.42 -6.131,-4.193c-1.751,-1.774 -3.131,-3.877 -4.141,-6.308c-1.01,-2.432 -1.515,-5.057 -1.515,-7.876c0,-2.866 0.505,-5.521 1.515,-7.964c1.01,-2.443 2.39,-4.552 4.141,-6.325c1.75,-1.774 3.794,-3.166 6.131,-4.176c2.338,-1.011 4.834,-1.516 7.489,-1.516c2.678,0 5.186,0.476 7.523,1.428c2.338,0.951 4.376,2.302 6.114,4.052c1.739,1.75 3.113,3.853 4.123,6.308c1.01,2.455 1.515,5.186 1.515,8.193Zm-9.69,0c0,-1.551 -0.253,-2.954 -0.758,-4.211c-0.505,-1.257 -1.192,-2.338 -2.061,-3.242c-0.87,-0.905 -1.886,-1.598 -3.049,-2.079c-1.163,-0.482 -2.402,-0.723 -3.717,-0.723c-1.316,0 -2.555,0.241 -3.718,0.723c-1.163,0.481 -2.173,1.174 -3.031,2.079c-0.857,0.904 -1.533,1.985 -2.026,3.242c-0.493,1.257 -0.74,2.66 -0.74,4.211c0,1.457 0.247,2.807 0.74,4.052c0.493,1.246 1.169,2.326 2.026,3.242c0.858,0.917 1.868,1.639 3.031,2.168c1.163,0.528 2.402,0.793 3.718,0.793c1.315,0 2.554,-0.247 3.717,-0.74c1.163,-0.494 2.179,-1.187 3.049,-2.08c0.869,-0.892 1.556,-1.973 2.061,-3.242c0.505,-1.268 0.758,-2.666 0.758,-4.193Z" style="fill:#fff;fill-rule:nonzero;"/><path d="M501.07,365.096c0,-1.316 -0.253,-2.59 -0.758,-3.823c-0.505,-1.234 -1.192,-2.326 -2.061,-3.278c-0.87,-0.951 -1.886,-1.715 -3.049,-2.29c-1.162,-0.576 -2.402,-0.864 -3.717,-0.864c-1.316,0 -2.555,0.224 -3.718,0.67c-1.163,0.446 -2.173,1.104 -3.031,1.973c-0.857,0.87 -1.532,1.944 -2.026,3.225c-0.493,1.28 -0.74,2.742 -0.74,4.387c0,1.574 0.247,2.989 0.74,4.246c0.494,1.257 1.169,2.332 2.026,3.225c0.858,0.892 1.868,1.58 3.031,2.061c1.163,0.482 2.402,0.723 3.718,0.723c1.315,0 2.555,-0.288 3.717,-0.864c1.163,-0.575 2.179,-1.339 3.049,-2.29c0.869,-0.952 1.556,-2.044 2.061,-3.278c0.505,-1.233 0.758,-2.507 0.758,-3.823Zm9.691,14.448c0,2.655 -0.506,5.145 -1.516,7.471c-1.01,2.326 -2.39,4.358 -4.14,6.096c-1.751,1.739 -3.794,3.113 -6.132,4.123c-2.337,1.01 -4.834,1.515 -7.488,1.515l-4.828,-0.07l0,-9.62l4.757,0.07c1.504,0 2.784,-0.194 3.841,-0.581c1.058,-0.388 1.95,-0.917 2.679,-1.586c0.728,-0.67 1.309,-1.439 1.744,-2.308c0.434,-0.87 0.781,-1.786 1.039,-2.749c-0.375,0.611 -0.916,1.11 -1.621,1.498c-0.704,0.387 -1.485,0.705 -2.343,0.951c-0.857,0.247 -1.75,0.417 -2.678,0.511c-0.928,0.094 -1.791,0.141 -2.59,0.141c-2.655,0 -5.151,-0.458 -7.489,-1.374c-2.337,-0.916 -4.381,-2.226 -6.131,-3.929c-1.75,-1.704 -3.131,-3.789 -4.141,-6.255c-1.01,-2.467 -1.515,-5.251 -1.515,-8.352c0,-2.843 0.505,-5.486 1.515,-7.929c1.01,-2.443 2.391,-4.557 4.141,-6.343c1.75,-1.785 3.794,-3.183 6.131,-4.193c2.338,-1.011 4.834,-1.516 7.489,-1.516c1.221,0 2.431,0.153 3.629,0.458c1.199,0.306 2.361,0.729 3.489,1.269c1.128,0.54 2.203,1.175 3.224,1.903c1.022,0.728 1.98,1.515 2.872,2.361l3.736,-4.475l2.326,0l0,32.913Z" style="fill:#fff;fill-rule:nonzero;"/><path d="M527.711,384.301l-9.621,0l0,-37.741l2.326,0l3.172,3.665c1.55,-1.41 3.306,-2.496 5.268,-3.26c1.962,-0.763 4.011,-1.145 6.149,-1.145c2.302,0 4.476,0.441 6.519,1.322c2.044,0.881 3.83,2.09 5.357,3.629c1.527,1.539 2.731,3.336 3.612,5.392c0.881,2.055 1.321,4.246 1.321,6.572l0,21.566l-9.62,0l0,-21.566c0,-0.987 -0.188,-1.921 -0.564,-2.802c-0.376,-0.881 -0.893,-1.65 -1.55,-2.308c-0.658,-0.658 -1.422,-1.174 -2.291,-1.55c-0.869,-0.376 -1.797,-0.564 -2.784,-0.564c-1.01,0 -1.962,0.188 -2.854,0.564c-0.893,0.376 -1.668,0.892 -2.326,1.55c-0.658,0.658 -1.175,1.427 -1.551,2.308c-0.375,0.881 -0.563,1.815 -0.563,2.802l0,21.566Z" style="fill:#fff;fill-rule:nonzero;"/><path d="M573.662,375.069c0.376,0.117 0.752,0.193 1.128,0.229c0.376,0.035 0.752,0.053 1.128,0.053c0.94,0 1.844,-0.13 2.713,-0.388c0.869,-0.258 1.686,-0.628 2.449,-1.11c0.764,-0.482 1.445,-1.069 2.044,-1.762c0.599,-0.693 1.087,-1.462 1.463,-2.308l7.047,7.083c-0.892,1.268 -1.92,2.408 -3.083,3.418c-1.163,1.01 -2.42,1.868 -3.771,2.573c-1.35,0.704 -2.772,1.239 -4.263,1.603c-1.492,0.364 -3.025,0.546 -4.599,0.546c-2.655,0 -5.151,-0.493 -7.489,-1.48c-2.337,-0.987 -4.381,-2.361 -6.131,-4.123c-1.75,-1.762 -3.131,-3.859 -4.141,-6.29c-1.01,-2.432 -1.515,-5.104 -1.515,-8.017c0,-2.984 0.505,-5.709 1.515,-8.176c1.01,-2.466 2.391,-4.569 4.141,-6.307c1.75,-1.739 3.794,-3.09 6.131,-4.053c2.338,-0.963 4.834,-1.445 7.489,-1.445c1.574,0 3.113,0.188 4.616,0.564c1.504,0.376 2.931,0.916 4.282,1.621c1.351,0.705 2.613,1.568 3.788,2.59c1.175,1.022 2.208,2.167 3.101,3.436l-18.043,21.743Zm4.934,-19.84c-0.446,-0.164 -0.887,-0.27 -1.321,-0.317c-0.435,-0.047 -0.887,-0.071 -1.357,-0.071c-1.316,0 -2.555,0.241 -3.718,0.723c-1.163,0.481 -2.173,1.169 -3.03,2.061c-0.858,0.893 -1.533,1.968 -2.027,3.225c-0.493,1.257 -0.74,2.672 -0.74,4.246c0,0.352 0.018,0.752 0.053,1.198c0.035,0.446 0.094,0.899 0.176,1.357c0.083,0.458 0.182,0.898 0.3,1.321c0.117,0.423 0.27,0.799 0.458,1.128l11.206,-14.871Z" style="fill:#fff;fill-rule:nonzero;"/></g></svg>