<?xml version="1.0" encoding="utf-8"?>
<!-- Generated by Layerhero SVG Exporter: http://www.layerhero.com/photoshop-svg-exporter -->
<!DOCTYPE svg PUBLIC "-//W3C//DTD SVG 1.1//EN" "http://www.w3.org/Graphics/SVG/1.1/DTD/svg11.dtd">
<svg version="1.1" baseProfile="full" xmlns="http://www.w3.org/2000/svg" xmlns:xlink="http://www.w3.org/1999/xlink" xmlns:ev="http://www.w3.org/2001/xml-events" width="346" height="86" viewBox="0 0 346 86">
<g transform="scale(NaN)" ><path fill-rule="evenodd"
 d="M295.120,80.265 C295.120,80.265 295.120,85.123 295.120,85.123 C295.120,85.123 294.271,85.123 294.271,85.123 C294.271,85.123 294.271,80.265 294.271,80.265 C294.271,80.265 289.910,73.331 289.910,73.331 C289.910,73.331 290.658,73.331 290.658,73.331 C290.736,73.331 290.800,73.349 290.850,73.385 C290.900,73.422 290.942,73.473 290.975,73.539 C290.975,73.539 294.346,78.956 294.346,78.956 C294.418,79.084 294.483,79.207 294.542,79.327 C294.600,79.447 294.651,79.565 294.696,79.681 C294.740,79.565 294.791,79.447 294.850,79.327 C294.908,79.207 294.973,79.084 295.045,78.956 C295.045,78.956 298.416,73.539 298.416,73.539 C298.444,73.479 298.484,73.428 298.537,73.389 C298.590,73.351 298.655,73.331 298.733,73.331 C298.733,73.331 299.482,73.331 299.482,73.331 C299.482,73.331 295.120,80.265 295.120,80.265 ZM273.828,79.473 C273.828,79.473 266.453,79.473 266.453,79.473 C266.453,79.473 266.453,85.123 266.453,85.123 C266.453,85.123 265.596,85.123 265.596,85.123 C265.596,85.123 265.596,73.331 265.596,73.331 C265.596,73.331 266.453,73.331 266.453,73.331 C266.453,73.331 266.453,78.831 266.453,78.831 C266.453,78.831 273.828,78.831 273.828,78.831 C273.828,78.831 273.828,73.331 273.828,73.331 C273.828,73.331 274.685,73.331 274.685,73.331 C274.685,73.331 274.685,85.123 274.685,85.123 C274.685,85.123 273.828,85.123 273.828,85.123 C273.828,85.123 273.828,79.473 273.828,79.473 ZM248.756,79.377 C248.395,79.691 247.957,79.935 247.441,80.110 C246.925,80.285 246.345,80.373 245.701,80.373 C245.701,80.373 243.512,80.373 243.512,80.373 C243.512,80.373 243.512,85.123 243.512,85.123 C243.512,85.123 242.655,85.123 242.655,85.123 C242.655,85.123 242.655,73.331 242.655,73.331 C242.655,73.331 245.701,73.331 245.701,73.331 C247.083,73.331 248.125,73.634 248.826,74.240 C249.529,74.845 249.880,75.709 249.880,76.831 C249.880,77.348 249.782,77.823 249.588,78.256 C249.394,78.690 249.116,79.063 248.756,79.377 ZM248.190,74.739 C247.635,74.251 246.805,74.006 245.701,74.006 C245.701,74.006 243.512,74.006 243.512,74.006 C243.512,74.006 243.512,79.689 243.512,79.689 C243.512,79.689 245.701,79.689 245.701,79.689 C246.217,79.689 246.681,79.617 247.091,79.473 C247.502,79.328 247.850,79.128 248.136,78.873 C248.422,78.617 248.641,78.316 248.794,77.969 C248.946,77.622 249.022,77.242 249.022,76.831 C249.022,75.926 248.745,75.228 248.190,74.739 ZM226.531,85.060 C226.481,85.019 226.442,84.964 226.415,84.898 C226.415,84.898 225.033,81.473 225.033,81.473 C225.033,81.473 219.247,81.473 219.247,81.473 C219.247,81.473 217.866,84.898 217.866,84.898 C217.844,84.959 217.804,85.012 217.749,85.056 C217.694,85.101 217.627,85.123 217.550,85.123 C217.550,85.123 216.900,85.123 216.900,85.123 C216.900,85.123 221.720,73.331 221.720,73.331 C221.720,73.331 222.560,73.331 222.560,73.331 C222.560,73.331 227.380,85.123 227.380,85.123 C227.380,85.123 226.722,85.123 226.722,85.123 C226.645,85.123 226.581,85.102 226.531,85.060 ZM222.377,74.881 C222.294,74.687 222.214,74.453 222.136,74.181 C222.097,74.315 222.058,74.442 222.019,74.565 C221.981,74.687 221.942,74.795 221.903,74.889 C221.903,74.889 219.497,80.839 219.497,80.839 C219.497,80.839 224.775,80.839 224.775,80.839 C224.775,80.839 222.377,74.881 222.377,74.881 ZM203.124,85.123 C203.124,85.123 202.391,85.123 202.391,85.123 C202.297,85.123 202.218,85.108 202.154,85.077 C202.091,85.047 202.031,84.990 201.975,84.906 C201.975,84.906 198.196,80.123 198.196,80.123 C198.152,80.062 198.106,80.009 198.059,79.964 C198.012,79.920 197.959,79.885 197.901,79.860 C197.842,79.835 197.773,79.817 197.693,79.806 C197.612,79.795 197.514,79.790 197.397,79.790 C197.397,79.790 195.857,79.790 195.857,79.790 C195.857,79.790 195.857,85.123 195.857,85.123 C195.857,85.123 195.000,85.123 195.000,85.123 C195.000,85.123 195.000,73.331 195.000,73.331 C195.000,73.331 198.013,73.331 198.013,73.331 C199.367,73.331 200.382,73.594 201.055,74.119 C201.730,74.644 202.067,75.414 202.067,76.431 C202.067,76.881 201.988,77.292 201.829,77.664 C201.672,78.037 201.447,78.363 201.156,78.644 C200.864,78.924 200.512,79.155 200.098,79.335 C199.685,79.516 199.223,79.634 198.713,79.689 C198.846,79.773 198.965,79.884 199.070,80.023 C199.070,80.023 203.124,85.123 203.124,85.123 ZM199.299,78.969 C199.713,78.844 200.063,78.664 200.348,78.431 C200.634,78.198 200.852,77.917 201.001,77.589 C201.151,77.262 201.226,76.892 201.226,76.481 C201.226,75.642 200.953,75.020 200.406,74.614 C199.860,74.209 199.062,74.006 198.013,74.006 C198.013,74.006 195.857,74.006 195.857,74.006 C195.857,74.006 195.857,79.156 195.857,79.156 C195.857,79.156 197.897,79.156 197.897,79.156 C198.418,79.156 198.886,79.094 199.299,78.969 ZM174.722,85.256 C173.790,85.256 172.952,85.113 172.208,84.827 C171.465,84.541 170.831,84.135 170.307,83.610 C169.782,83.085 169.380,82.451 169.100,81.706 C168.819,80.962 168.679,80.134 168.679,79.223 C168.679,78.312 168.817,77.485 169.092,76.744 C169.366,76.002 169.760,75.369 170.273,74.844 C170.787,74.319 171.407,73.913 172.133,73.627 C172.861,73.341 173.679,73.198 174.589,73.198 C175.039,73.198 175.453,73.228 175.833,73.290 C176.214,73.351 176.568,73.441 176.895,73.560 C177.222,73.680 177.527,73.827 177.811,74.002 C178.094,74.177 178.366,74.378 178.626,74.606 C178.626,74.606 178.393,74.973 178.393,74.973 C178.315,75.106 178.199,75.137 178.043,75.064 C177.960,75.031 177.841,74.953 177.686,74.831 C177.531,74.709 177.317,74.581 177.045,74.448 C176.773,74.315 176.436,74.195 176.034,74.090 C175.631,73.984 175.141,73.931 174.564,73.931 C173.798,73.931 173.106,74.053 172.488,74.298 C171.869,74.542 171.341,74.893 170.906,75.348 C170.470,75.803 170.134,76.359 169.899,77.015 C169.663,77.670 169.545,78.406 169.545,79.223 C169.545,80.051 169.663,80.795 169.899,81.456 C170.134,82.117 170.476,82.679 170.923,83.139 C171.369,83.601 171.912,83.953 172.550,84.198 C173.188,84.442 173.907,84.564 174.706,84.564 C175.056,84.564 175.379,84.544 175.676,84.502 C175.973,84.460 176.255,84.398 176.524,84.315 C176.794,84.231 177.054,84.130 177.307,84.010 C177.560,83.891 177.816,83.756 178.077,83.606 C178.077,83.606 178.077,80.431 178.077,80.431 C178.077,80.431 175.822,80.431 175.822,80.431 C175.760,80.431 175.709,80.412 175.667,80.373 C175.626,80.334 175.605,80.289 175.605,80.239 C175.605,80.239 175.605,79.773 175.605,79.773 C175.605,79.773 178.851,79.773 178.851,79.773 C178.851,79.773 178.851,83.965 178.851,83.965 C178.263,84.381 177.636,84.701 176.970,84.923 C176.304,85.145 175.555,85.256 174.722,85.256 ZM151.857,83.602 C151.363,84.127 150.771,84.533 150.080,84.819 C149.389,85.105 148.627,85.248 147.795,85.248 C146.962,85.248 146.202,85.105 145.514,84.819 C144.825,84.533 144.235,84.127 143.741,83.602 C143.247,83.077 142.864,82.444 142.592,81.702 C142.320,80.960 142.184,80.134 142.184,79.223 C142.184,78.317 142.320,77.494 142.592,76.752 C142.864,76.010 143.247,75.377 143.741,74.852 C144.235,74.327 144.825,73.920 145.514,73.631 C146.202,73.342 146.962,73.198 147.795,73.198 C148.627,73.198 149.389,73.341 150.080,73.627 C150.771,73.913 151.363,74.320 151.857,74.848 C152.351,75.376 152.733,76.010 153.005,76.752 C153.277,77.494 153.414,78.317 153.414,79.223 C153.414,80.134 153.277,80.960 153.005,81.702 C152.733,82.444 152.351,83.077 151.857,83.602 ZM152.190,77.006 C151.962,76.351 151.640,75.795 151.224,75.339 C150.808,74.884 150.308,74.535 149.726,74.294 C149.143,74.052 148.499,73.931 147.795,73.931 C147.095,73.931 146.455,74.052 145.872,74.294 C145.289,74.535 144.788,74.884 144.369,75.339 C143.950,75.795 143.625,76.351 143.395,77.006 C143.165,77.662 143.050,78.401 143.050,79.223 C143.050,80.051 143.165,80.791 143.395,81.444 C143.625,82.096 143.950,82.651 144.369,83.106 C144.788,83.562 145.289,83.909 145.872,84.148 C146.455,84.387 147.095,84.506 147.795,84.506 C148.499,84.506 149.143,84.387 149.726,84.148 C150.308,83.909 150.808,83.562 151.224,83.106 C151.640,82.651 151.962,82.096 152.190,81.444 C152.417,80.791 152.531,80.051 152.531,79.223 C152.531,78.401 152.417,77.662 152.190,77.006 ZM124.205,85.123 C124.205,85.123 123.347,85.123 123.347,85.123 C123.347,85.123 123.347,74.056 123.347,74.056 C123.347,74.056 119.185,74.056 119.185,74.056 C119.185,74.056 119.185,73.331 119.185,73.331 C119.185,73.331 128.341,73.331 128.341,73.331 C128.341,73.331 128.341,74.056 128.341,74.056 C128.341,74.056 124.205,74.056 124.205,74.056 C124.205,74.056 124.205,85.123 124.205,85.123 ZM103.786,83.602 C103.292,84.127 102.700,84.533 102.009,84.819 C101.318,85.105 100.556,85.248 99.723,85.248 C98.891,85.248 98.131,85.105 97.443,84.819 C96.755,84.533 96.163,84.127 95.670,83.602 C95.176,83.077 94.793,82.444 94.521,81.702 C94.249,80.960 94.113,80.134 94.113,79.223 C94.113,78.317 94.249,77.494 94.521,76.752 C94.793,76.010 95.176,75.377 95.670,74.852 C96.163,74.327 96.755,73.920 97.443,73.631 C98.131,73.342 98.891,73.198 99.723,73.198 C100.556,73.198 101.318,73.341 102.009,73.627 C102.700,73.913 103.292,74.320 103.786,74.848 C104.279,75.376 104.662,76.010 104.935,76.752 C105.207,77.494 105.343,78.317 105.343,79.223 C105.343,80.134 105.207,80.960 104.935,81.702 C104.662,82.444 104.279,83.077 103.786,83.602 ZM104.119,77.006 C103.891,76.351 103.569,75.795 103.153,75.339 C102.737,74.884 102.238,74.535 101.655,74.294 C101.072,74.052 100.428,73.931 99.723,73.931 C99.024,73.931 98.384,74.052 97.801,74.294 C97.218,74.535 96.717,74.884 96.298,75.339 C95.879,75.795 95.555,76.351 95.324,77.006 C95.094,77.662 94.979,78.401 94.979,79.223 C94.979,80.051 95.094,80.791 95.324,81.444 C95.555,82.096 95.879,82.651 96.298,83.106 C96.717,83.562 97.218,83.909 97.801,84.148 C98.384,84.387 99.024,84.506 99.723,84.506 C100.428,84.506 101.072,84.387 101.655,84.148 C102.238,83.909 102.737,83.562 103.153,83.106 C103.569,82.651 103.891,82.096 104.119,81.444 C104.346,80.791 104.460,80.051 104.460,79.223 C104.460,78.401 104.346,77.662 104.119,77.006 ZM77.224,79.473 C77.224,79.473 69.848,79.473 69.848,79.473 C69.848,79.473 69.848,85.123 69.848,85.123 C69.848,85.123 68.991,85.123 68.991,85.123 C68.991,85.123 68.991,73.331 68.991,73.331 C68.991,73.331 69.848,73.331 69.848,73.331 C69.848,73.331 69.848,78.831 69.848,78.831 C69.848,78.831 77.224,78.831 77.224,78.831 C77.224,78.831 77.224,73.331 77.224,73.331 C77.224,73.331 78.081,73.331 78.081,73.331 C78.081,73.331 78.081,85.123 78.081,85.123 C78.081,85.123 77.224,85.123 77.224,85.123 C77.224,85.123 77.224,79.473 77.224,79.473 ZM52.152,79.377 C51.791,79.691 51.353,79.935 50.837,80.110 C50.321,80.285 49.741,80.373 49.097,80.373 C49.097,80.373 46.908,80.373 46.908,80.373 C46.908,80.373 46.908,85.123 46.908,85.123 C46.908,85.123 46.050,85.123 46.050,85.123 C46.050,85.123 46.050,73.331 46.050,73.331 C46.050,73.331 49.097,73.331 49.097,73.331 C50.479,73.331 51.521,73.634 52.223,74.240 C52.925,74.845 53.276,75.709 53.276,76.831 C53.276,77.348 53.179,77.823 52.985,78.256 C52.790,78.690 52.513,79.063 52.152,79.377 ZM51.586,74.739 C51.031,74.251 50.201,74.006 49.097,74.006 C49.097,74.006 46.908,74.006 46.908,74.006 C46.908,74.006 46.908,79.689 46.908,79.689 C46.908,79.689 49.097,79.689 49.097,79.689 C49.613,79.689 50.076,79.617 50.487,79.473 C50.898,79.328 51.246,79.128 51.532,78.873 C51.818,78.617 52.037,78.316 52.190,77.969 C52.342,77.622 52.419,77.242 52.419,76.831 C52.419,75.926 52.141,75.228 51.586,74.739 Z"/>
<path fill-rule="evenodd"  fill="rgb( 255, 255, 255 )"
 d="M344.696,43.204 C344.136,44.324 340.141,52.323 334.148,52.083 C325.918,51.843 329.194,42.004 327.995,41.684 C327.357,41.524 325.439,51.523 321.443,51.283 C318.327,51.043 319.206,45.924 319.445,42.724 C319.605,41.044 319.605,39.844 319.046,39.844 C318.806,39.844 318.247,41.124 317.208,43.044 C317.166,43.092 317.119,43.126 317.070,43.153 C317.062,43.170 317.055,43.186 317.047,43.204 C316.487,44.324 312.492,52.323 306.499,52.083 C298.269,51.843 301.545,42.004 300.346,41.684 C299.707,41.524 297.789,51.523 293.794,51.283 C290.678,51.043 291.557,45.924 291.796,42.724 C291.956,41.044 291.956,39.844 291.397,39.844 C291.157,39.844 290.598,41.124 289.559,43.044 C289.559,43.045 289.558,43.045 289.557,43.046 C288.197,45.607 284.203,52.244 279.490,52.323 C274.696,52.403 273.976,47.524 273.976,47.524 C273.976,47.524 271.100,52.803 268.303,52.723 C266.989,52.723 263.943,51.702 263.767,46.555 C261.858,49.387 258.717,52.906 254.717,52.803 C246.167,52.564 250.083,38.884 249.443,38.884 C248.805,38.804 246.247,52.003 242.252,51.923 C238.017,51.763 241.613,40.964 239.535,40.884 C238.497,40.804 235.460,53.203 231.784,52.883 C227.470,52.484 231.385,40.564 229.547,40.564 C229.307,40.564 228.987,41.124 227.949,43.044 C227.946,43.048 227.941,43.050 227.937,43.054 C227.913,43.105 227.894,43.152 227.869,43.204 C227.229,44.324 223.314,52.323 217.800,52.003 C211.807,51.683 211.488,45.524 211.488,44.004 C211.249,40.324 212.607,38.964 212.127,38.484 C211.249,37.764 211.249,39.044 210.210,39.044 C209.171,39.044 208.372,38.564 208.052,39.284 C207.652,40.164 206.933,41.284 205.815,43.204 C205.815,43.204 205.815,43.204 205.815,43.204 C205.019,44.793 200.952,52.641 195.108,52.564 C187.836,52.403 186.957,46.644 187.117,42.404 C187.277,38.164 191.112,29.605 195.507,32.324 C198.784,34.484 196.946,38.324 195.827,41.204 C194.549,44.484 192.311,47.204 191.192,48.564 C191.911,49.204 193.190,49.684 194.549,49.684 C199.625,49.684 202.958,44.205 205.044,40.608 C205.413,39.893 205.687,39.266 206.374,38.164 C206.693,37.684 206.534,37.844 206.534,36.244 C206.534,33.684 207.333,30.805 208.771,30.965 C209.970,31.045 210.609,32.964 210.529,33.524 C210.529,34.244 209.730,35.044 210.130,35.444 C210.449,35.844 211.009,35.604 211.249,35.524 C211.727,35.284 213.406,34.004 215.244,35.044 C216.363,35.684 215.963,37.684 215.963,37.924 C215.803,39.764 214.764,39.684 214.764,43.124 C214.684,46.564 215.084,49.364 218.280,49.364 C222.115,49.364 225.711,42.884 227.629,39.524 C227.687,39.408 227.751,39.325 227.816,39.257 C228.040,38.886 228.292,38.478 228.588,38.004 C229.547,36.484 231.225,36.484 232.184,39.204 C233.063,41.764 231.545,48.564 232.344,48.884 C233.622,49.444 237.618,38.804 238.177,37.684 C239.375,35.524 242.732,35.924 242.812,39.524 C242.812,40.804 242.092,48.404 242.892,48.564 C243.611,48.724 247.126,38.564 247.846,36.804 C248.565,34.964 250.722,35.284 252.081,36.804 C253.120,37.924 248.884,49.604 255.197,50.004 C258.938,50.262 262.210,45.412 264.299,41.765 C265.826,35.704 270.150,32.972 272.458,33.044 C277.092,33.204 276.693,37.204 276.613,37.604 C275.974,39.684 275.175,39.124 274.616,38.884 C274.616,38.884 275.095,35.524 272.378,35.444 C270.061,35.364 267.744,38.884 266.944,42.484 C266.066,46.164 266.625,49.924 268.543,49.924 C271.499,49.924 273.976,41.924 274.296,39.924 C274.456,39.124 277.412,39.764 277.252,41.044 C277.172,41.044 274.296,49.604 279.650,49.604 C281.838,49.604 284.627,47.534 288.319,41.269 C288.351,41.168 288.389,41.067 288.441,40.964 C288.920,40.084 289.400,39.284 290.198,38.004 C290.997,36.564 292.995,35.764 294.034,38.484 C295.312,41.924 292.995,47.603 294.593,48.004 C295.792,48.244 299.388,38.244 300.187,36.484 C300.906,34.724 302.664,34.884 303.942,36.404 C305.061,37.604 300.187,49.124 306.499,49.604 C311.373,50.004 315.049,42.804 316.887,39.444 C316.977,39.284 317.072,39.172 317.167,39.106 C317.368,38.775 317.590,38.416 317.847,38.004 C318.646,36.564 320.644,35.764 321.683,38.484 C322.961,41.924 320.644,47.603 322.243,48.004 C323.441,48.244 327.037,38.244 327.836,36.484 C328.555,34.724 330.313,34.884 331.591,36.404 C332.710,37.604 327.836,49.124 334.148,49.604 C339.022,50.004 342.698,42.804 344.536,39.444 C345.255,38.164 346.294,40.004 344.696,43.204 ZM193.670,40.244 C194.629,37.764 195.348,34.884 193.909,34.564 C192.311,34.324 189.035,42.004 190.074,46.564 C192.711,43.604 192.950,42.164 193.670,40.244 ZM188.315,28.565 C184.080,28.725 185.119,28.645 182.482,28.725 C182.482,30.885 182.562,35.284 182.162,41.204 C181.683,49.444 178.007,52.963 175.130,53.123 C172.334,53.203 167.779,52.963 160.428,48.244 C154.834,44.724 151.318,40.004 149.960,36.404 C149.640,41.444 149.480,46.004 149.400,47.364 C149.321,49.764 150.040,50.963 150.120,51.763 C150.120,52.644 149.001,52.484 147.963,52.003 C146.444,51.283 146.684,50.084 146.684,50.084 C146.684,50.084 145.885,36.804 147.163,26.325 C147.803,20.725 149.720,6.166 149.800,5.846 C149.880,4.966 150.120,0.326 153.715,3.126 C154.594,3.766 154.035,4.646 153.796,5.286 C153.476,6.086 151.478,17.605 150.679,25.285 C150.519,27.125 150.359,29.205 150.200,31.365 C154.594,27.845 171.615,26.325 179.046,26.165 C179.285,19.925 180.724,7.446 181.283,5.206 C182.002,2.246 183.441,-0.234 185.119,0.806 C186.717,1.446 185.678,2.966 185.678,2.966 C185.678,2.966 184.959,4.966 184.000,9.766 C183.281,13.686 182.722,22.805 182.562,26.085 C184.000,26.165 184.959,26.165 187.756,26.325 C188.635,26.325 189.673,26.245 189.593,27.525 C189.513,28.725 189.034,28.565 188.315,28.565 ZM179.046,28.725 C173.373,28.885 152.756,29.685 152.277,34.324 C152.117,36.084 156.432,42.084 162.186,45.924 C167.859,49.764 173.932,51.763 176.809,50.243 C179.845,48.564 179.125,33.444 179.046,28.725 ZM125.266,52.803 C116.716,52.564 120.632,38.884 119.993,38.884 C119.353,38.804 116.796,52.003 112.801,51.923 C108.566,51.763 112.162,40.964 110.084,40.884 C109.045,40.804 106.009,53.203 102.333,52.883 C98.018,52.484 101.934,40.564 100.096,40.564 C99.856,40.564 99.537,41.124 98.498,43.044 C98.442,43.108 98.378,43.147 98.311,43.175 C97.439,44.876 93.196,52.644 87.790,52.644 C83.302,52.701 81.715,48.860 81.237,46.168 C79.347,49.036 76.182,52.693 72.367,52.484 C69.411,52.323 67.493,50.403 66.295,47.683 C64.137,50.643 61.660,52.723 59.183,52.564 C57.663,52.491 54.702,51.828 54.453,47.544 C52.569,49.963 50.047,52.276 47.276,52.323 C42.482,52.403 41.762,47.524 41.762,47.524 C41.762,47.524 38.886,52.803 36.089,52.723 C34.571,52.723 30.735,51.363 31.694,43.844 C32.653,36.324 37.687,32.964 40.244,33.044 C44.879,33.204 44.479,37.204 44.399,37.604 C43.760,39.684 42.961,39.124 42.402,38.884 C42.402,38.884 42.881,35.524 40.164,35.444 C37.847,35.364 35.530,38.884 34.731,42.484 C33.852,46.164 34.411,49.924 36.329,49.924 C39.285,49.924 41.762,41.924 42.082,39.924 C42.242,39.124 45.198,39.764 45.039,41.044 C44.959,41.044 42.082,49.604 47.436,49.604 C49.379,49.604 51.796,47.973 54.897,43.221 C56.538,36.411 62.087,33.552 64.137,33.764 C64.537,33.764 64.856,33.844 65.096,34.004 C66.375,21.845 70.370,9.606 74.845,10.166 C80.278,10.886 75.963,25.765 71.409,37.844 C70.530,40.164 69.411,42.644 68.133,44.804 C69.012,47.603 70.450,49.444 72.527,49.684 C76.093,49.997 79.218,45.653 81.288,42.139 C81.535,40.414 81.877,38.484 81.877,38.484 C82.436,37.044 84.913,37.204 84.913,38.644 C84.913,39.044 81.877,50.323 88.110,50.004 C92.345,49.844 96.340,42.644 98.178,39.284 C98.317,39.021 98.470,38.881 98.617,38.844 C98.775,38.586 98.947,38.309 99.137,38.004 C100.096,36.484 101.774,36.484 102.733,39.204 C103.612,41.764 102.094,48.564 102.893,48.884 C104.171,49.444 108.166,38.804 108.726,37.684 C109.924,35.524 113.280,35.924 113.360,39.524 C113.360,40.804 112.641,48.404 113.440,48.564 C114.159,48.724 117.675,38.564 118.394,36.804 C119.114,34.964 121.271,35.284 122.630,36.804 C123.668,37.924 119.433,49.604 125.746,50.004 C130.380,50.323 134.296,42.804 136.134,39.444 C136.852,38.164 137.892,39.924 136.294,43.204 C135.654,44.324 131.499,52.963 125.266,52.803 ZM64.776,37.124 C64.457,36.804 63.978,36.564 63.418,36.484 C61.021,36.244 57.745,41.764 57.425,45.764 C57.265,48.244 57.585,50.004 59.423,50.084 C61.341,50.164 63.418,47.763 65.336,44.404 C64.856,42.084 64.696,39.524 64.776,37.124 ZM72.447,26.965 C73.646,22.885 74.845,13.846 74.205,13.686 C73.566,13.526 71.169,15.605 68.612,26.485 C67.493,31.365 66.934,36.564 67.253,40.804 C69.810,35.364 71.888,29.045 72.447,26.965 ZM82.996,34.324 C81.478,34.084 81.158,32.804 81.238,32.005 C81.238,31.285 82.037,29.285 83.715,29.525 C85.473,29.764 85.553,31.445 85.393,32.564 C85.233,33.684 84.194,34.484 82.996,34.324 ZM26.898,26.885 C20.506,39.364 16.910,51.843 16.431,54.723 C16.031,57.043 13.234,56.163 12.435,55.603 C5.643,50.803 0.369,13.286 0.369,7.446 C0.369,5.206 4.844,7.526 4.764,9.926 C4.605,12.405 6.922,41.764 13.714,51.523 C28.816,7.446 38.644,5.606 39.843,5.126 C41.042,4.726 40.562,7.606 40.562,7.606 C40.483,7.606 36.647,8.006 26.898,26.885 Z"/>
</g></svg>
