<?xml version="1.0" encoding="iso-8859-1"?>
<!-- Generator: Adobe Illustrator 15.1.0, SVG Export Plug-In . SVG Version: 6.00 Build 0)  -->
<!DOCTYPE svg PUBLIC "-//W3C//DTD SVG 1.1//EN" "http://www.w3.org/Graphics/SVG/1.1/DTD/svg11.dtd">
<svg version="1.1" id="Ebene_1" xmlns="http://www.w3.org/2000/svg" xmlns:xlink="http://www.w3.org/1999/xlink" x="0px" y="0px"
	 width="24px" height="19.503px" viewBox="0 0 24 19.503" style="enable-background:new 0 0 24 19.503;" xml:space="preserve">
<g>
	<path d="M24,2.295c-0.883,0.401-1.835,0.665-2.822,0.791c1.01-0.607,1.79-1.571,2.157-2.73c-0.952,0.574-2.008,0.976-3.12,1.205
		C19.308,0.574,18.034,0,16.589,0c-2.697,0-4.898,2.203-4.898,4.922c0,0.39,0.046,0.769,0.126,1.124
		C7.732,5.84,4.095,3.878,1.675,0.906C1.25,1.629,1.009,2.479,1.009,3.373c0,1.71,0.86,3.224,2.191,4.084
		c-0.814,0-1.572-0.229-2.237-0.573c0,0,0,0,0,0.034c0,2.386,1.698,4.382,3.947,4.83c-0.413,0.114-0.849,0.173-1.296,0.173
		c-0.31,0-0.62-0.036-0.917-0.092c0.619,1.938,2.42,3.383,4.589,3.418c-1.675,1.331-3.797,2.11-6.115,2.11
		c-0.391,0-0.781-0.023-1.17-0.068c2.18,1.399,4.772,2.214,7.549,2.214c9.04,0,14.008-7.503,14.008-14.008
		c0-0.218,0-0.424-0.012-0.643C22.509,4.164,23.334,3.293,24,2.295z"/>
</g>
</svg>
