<?xml version="1.0" encoding="iso-8859-1"?>
<!-- Generator: Adobe Illustrator 15.1.0, SVG Export Plug-In . SVG Version: 6.00 Build 0)  -->
<!DOCTYPE svg PUBLIC "-//W3C//DTD SVG 1.1//EN" "http://www.w3.org/Graphics/SVG/1.1/DTD/svg11.dtd">
<svg version="1.1" id="Ebene_1" xmlns="http://www.w3.org/2000/svg" xmlns:xlink="http://www.w3.org/1999/xlink" x="0px" y="0px"
	 width="23.088px" height="24px" viewBox="0 0 23.088 24" style="enable-background:new 0 0 23.088 24;" xml:space="preserve">
<g>
	<path d="M8.202,22.532c-3.373,0-5.519-1.509-5.519-3.746c0-2.229,1.984-2.947,2.683-3.2c1.317-0.446,3.038-0.497,3.312-0.497
		c0.304,0,0.465,0,0.739,0.02c2.37,1.712,3.393,2.472,3.393,4.082C12.811,20.983,10.967,22.532,8.202,22.532 M4.506,4.314
		c0-2.238,1.326-3.25,2.724-3.25c2.693,0,4.061,3.493,4.061,5.6c0,2.603-2.096,3.109-2.927,3.109
		C5.873,9.772,4.506,6.673,4.506,4.314 M12.252,13.57l-1.093-0.861c-0.365-0.304-0.83-0.699-0.83-1.438
		c0-0.739,0.557-1.306,0.982-1.641c1.328-1.033,2.603-2.126,2.603-4.395c0-2.096-1.287-3.301-2.066-3.969h1.772L14.885,0H8.577
		C4.162,0,1.894,2.744,1.894,5.793c0,2.359,1.812,4.891,5.042,4.891h0.811C7.615,11.038,7.392,11.534,7.392,12
		c0,1.023,0.425,1.448,0.932,2.025c-1.438,0.102-4.061,0.436-5.995,1.621C0.445,16.76,0,18.309,0,19.443C0,21.772,2.085,24,6.653,24
		c5.418,0,8.131-2.998,8.131-5.954C14.784,15.858,13.64,14.735,12.252,13.57 M20.05,10.076V7.038h-2.025v3.038h-3.038v2.025h3.038
		v3.039h2.025v-3.039h3.038v-2.025H20.05z"/>
</g>
</svg>
